<svg version="1.1" id="Layer_1" xmlns="http://www.w3.org/2000/svg" xmlns:xlink="http://www.w3.org/1999/xlink" x="0px" y="0px"
	 width="100%" viewBox="0 0 500 500" enable-background="new 0 0 500 500" xml:space="preserve">
<path fill="#000000" opacity="1.000000" stroke="none" 
	d="
M318.000000,501.000000 
	C212.000031,501.000000 106.500053,501.000000 1.000057,501.000000 
	C1.000038,334.333405 1.000038,167.666794 1.000019,1.000146 
	C167.666565,1.000097 334.333130,1.000097 500.999756,1.000049 
	C500.999847,167.666519 500.999847,334.333038 500.999939,500.999786 
	C440.166656,501.000000 379.333344,501.000000 318.000000,501.000000 
M210.346375,184.046585 
	C209.897278,184.086548 209.448166,184.126511 208.069611,184.038162 
	C183.085495,184.025452 158.101364,184.012207 133.117249,184.000473 
	C128.453522,183.998276 123.787628,183.913071 119.126656,184.026917 
	C113.906021,184.154434 112.358131,187.077942 115.257317,191.460495 
	C116.793549,193.782745 118.720108,195.850357 120.506821,198.002731 
	C128.387070,207.495712 136.370438,216.904861 144.138199,226.488861 
	C149.467041,233.063690 154.773636,238.582596 164.637115,237.200180 
	C171.906631,236.181320 179.436371,236.903763 186.844162,237.089401 
	C188.230286,237.124146 190.423630,238.012665 190.753082,239.003189 
	C191.191406,240.321075 190.530762,242.354843 189.696854,243.672638 
	C187.950562,246.432114 186.031097,249.174423 183.728455,251.467575 
	C180.332443,254.849609 176.952744,259.752319 172.841217,260.636444 
	C159.162598,263.577820 145.214737,262.098480 131.700821,258.868347 
	C114.128326,254.668152 100.066109,245.343323 94.095963,227.389984 
	C85.972107,202.960052 99.950630,179.481934 123.779846,169.963623 
	C137.881348,164.330948 152.810532,164.624252 167.572632,164.074692 
	C179.048584,163.647491 190.549561,163.892670 202.963470,163.971649 
	C240.276077,163.981064 277.588867,164.036926 314.900757,163.879349 
	C317.038879,163.870331 319.898590,162.702423 321.189789,161.087982 
	C332.636444,146.775894 343.877441,132.296310 354.958679,117.698860 
	C356.277496,115.961578 357.140442,112.963959 356.566132,111.043541 
	C356.216431,109.874100 352.709229,109.087143 350.618225,109.082588 
	C301.812134,108.976082 253.005722,108.988335 204.199463,109.049118 
	C202.479050,109.051262 200.759521,109.774513 198.274918,109.768929 
	C196.512543,109.512657 194.751038,109.040939 192.987671,109.033981 
	C178.001251,108.974808 163.009216,108.762543 148.029861,109.093292 
	C139.643265,109.278488 131.185501,109.852486 122.921852,111.226112 
	C106.831779,113.900703 91.489876,118.967888 77.096275,126.907249 
	C63.623283,134.338821 51.885521,143.624710 42.941395,156.237457 
	C26.619087,179.254684 23.212292,205.020920 28.253265,231.961975 
	C32.648026,255.449417 44.997150,274.682953 63.935787,289.310944 
	C85.986435,306.342590 111.170677,315.676361 138.951950,316.839691 
	C158.234314,317.647186 177.580368,317.150146 196.890930,316.822144 
	C199.608887,316.775970 203.091064,315.043091 204.845932,312.943085 
	C213.054642,303.120026 220.876892,292.967102 228.646072,282.786194 
	C233.292267,276.697693 237.586060,270.340271 242.524643,263.987244 
	C242.683273,263.935913 242.841904,263.884583 243.662491,263.671692 
	C247.253693,258.790863 251.174667,254.114227 254.354431,248.978653 
	C258.537811,242.222198 264.085358,239.776520 272.064484,239.852814 
	C307.549713,240.192154 343.042938,239.769211 378.525787,240.215271 
	C384.826202,240.294479 391.537689,242.253876 397.272339,244.992828 
	C406.883759,249.583328 412.270020,263.746643 403.890869,273.851562 
	C396.736725,282.479156 387.292664,284.637817 377.229431,284.890900 
	C351.138977,285.547028 325.035553,285.727722 298.936157,285.975647 
	C284.608795,286.111755 270.266113,286.360962 255.955795,285.848358 
	C248.755249,285.590424 243.799911,288.637604 239.825958,293.788910 
	C230.514648,305.858734 221.458206,318.125275 212.308624,330.319763 
	C198.440979,348.802429 184.554047,367.270844 170.780609,385.823486 
	C169.843262,387.086060 168.919281,389.591522 169.521271,390.475037 
	C170.424988,391.801392 172.678833,392.877991 174.369843,392.894348 
	C191.862534,393.063446 209.360397,393.159943 226.848984,392.842896 
	C229.858368,392.788330 233.921082,391.564575 235.640091,389.403595 
	C245.424591,377.103607 254.932297,364.556366 263.954010,351.686554 
	C269.631592,343.587311 276.265930,339.344360 286.582428,339.841370 
	C305.156403,340.736176 323.775879,340.855988 342.378082,340.949615 
	C363.224030,341.054535 384.152710,341.978058 404.781403,337.945770 
	C422.200348,334.540894 438.766968,328.532074 451.950226,316.326050 
	C469.920166,299.688202 477.224579,278.648834 475.074524,254.177200 
	C473.349518,234.542786 464.499695,218.871719 449.254669,206.849609 
	C433.045166,194.066895 414.467224,186.452576 393.850311,185.151886 
	C376.961548,184.086380 359.991058,184.144882 343.054749,184.043335 
	C316.029175,183.881302 289.001862,183.980743 261.975342,184.007294 
	C245.983734,184.023010 229.992203,184.111115 213.259644,184.036652 
	C212.511292,184.080048 211.762955,184.123444 210.346375,184.046585 
z"/>
<path fill="#DC0104" opacity="1.000000" stroke="none" 
	d="
M214.000626,184.166672 
	C229.992203,184.111115 245.983734,184.023010 261.975342,184.007294 
	C289.001862,183.980743 316.029175,183.881302 343.054749,184.043335 
	C359.991058,184.144882 376.961548,184.086380 393.850311,185.151886 
	C414.467224,186.452576 433.045166,194.066895 449.254669,206.849609 
	C464.499695,218.871719 473.349518,234.542786 475.074524,254.177200 
	C477.224579,278.648834 469.920166,299.688202 451.950226,316.326050 
	C438.766968,328.532074 422.200348,334.540894 404.781403,337.945770 
	C384.152710,341.978058 363.224030,341.054535 342.378082,340.949615 
	C323.775879,340.855988 305.156403,340.736176 286.582428,339.841370 
	C276.265930,339.344360 269.631592,343.587311 263.954010,351.686554 
	C254.932297,364.556366 245.424591,377.103607 235.640091,389.403595 
	C233.921082,391.564575 229.858368,392.788330 226.848984,392.842896 
	C209.360397,393.159943 191.862534,393.063446 174.369843,392.894348 
	C172.678833,392.877991 170.424988,391.801392 169.521271,390.475037 
	C168.919281,389.591522 169.843262,387.086060 170.780609,385.823486 
	C184.554047,367.270844 198.440979,348.802429 212.308624,330.319763 
	C221.458206,318.125275 230.514648,305.858734 239.825958,293.788910 
	C243.799911,288.637604 248.755249,285.590424 255.955795,285.848358 
	C270.266113,286.360962 284.608795,286.111755 298.936157,285.975647 
	C325.035553,285.727722 351.138977,285.547028 377.229431,284.890900 
	C387.292664,284.637817 396.736725,282.479156 403.890869,273.851562 
	C412.270020,263.746643 406.883759,249.583328 397.272339,244.992828 
	C391.537689,242.253876 384.826202,240.294479 378.525787,240.215271 
	C343.042938,239.769211 307.549713,240.192154 272.064484,239.852814 
	C264.085358,239.776520 258.537811,242.222198 254.354431,248.978653 
	C251.174667,254.114227 247.253693,258.790863 243.303955,263.388306 
	C242.142517,261.315491 241.453201,259.464111 240.517334,257.747162 
	C236.147598,249.730042 231.126923,242.008469 227.439865,233.693085 
	C222.531387,222.623047 218.830658,211.023819 214.232864,199.806976 
	C212.041397,194.460617 210.805283,189.435364 214.000626,184.166672 
z"/>
<path fill="#CC0103" opacity="1.000000" stroke="none" 
	d="
M202.039413,163.839005 
	C190.549561,163.892670 179.048584,163.647491 167.572632,164.074692 
	C152.810532,164.624252 137.881348,164.330948 123.779846,169.963623 
	C99.950630,179.481934 85.972107,202.960052 94.095963,227.389984 
	C100.066109,245.343323 114.128326,254.668152 131.700821,258.868347 
	C145.214737,262.098480 159.162598,263.577820 172.841217,260.636444 
	C176.952744,259.752319 180.332443,254.849609 183.728455,251.467575 
	C186.031097,249.174423 187.950562,246.432114 189.696854,243.672638 
	C190.530762,242.354843 191.191406,240.321075 190.753082,239.003189 
	C190.423630,238.012665 188.230286,237.124146 186.844162,237.089401 
	C179.436371,236.903763 171.906631,236.181320 164.637115,237.200180 
	C154.773636,238.582596 149.467041,233.063690 144.138199,226.488861 
	C136.370438,216.904861 128.387070,207.495712 120.506821,198.002731 
	C118.720108,195.850357 116.793549,193.782745 115.257317,191.460495 
	C112.358131,187.077942 113.906021,184.154434 119.126656,184.026917 
	C123.787628,183.913071 128.453522,183.998276 133.117249,184.000473 
	C158.101364,184.012207 183.085495,184.025452 208.428513,184.451843 
	C208.529221,188.074295 207.266373,191.610107 208.186157,194.435364 
	C212.240494,206.888870 216.855713,219.163147 221.457504,231.431183 
	C222.104095,233.154953 223.800369,234.485016 225.224030,236.259430 
	C226.631439,239.008957 227.825562,241.496399 228.928757,244.268036 
	C230.228653,246.700485 231.619461,248.848755 233.161835,251.231720 
	C233.543594,251.974274 233.773819,252.482132 234.028717,253.366608 
	C235.706314,256.160950 237.359207,258.578644 239.265778,261.178223 
	C240.359055,262.274628 241.198639,263.189178 242.038239,264.103729 
	C237.586060,270.340271 233.292267,276.697693 228.646072,282.786194 
	C220.876892,292.967102 213.054642,303.120026 204.845932,312.943085 
	C203.091064,315.043091 199.608887,316.775970 196.890930,316.822144 
	C177.580368,317.150146 158.234314,317.647186 138.951950,316.839691 
	C111.170677,315.676361 85.986435,306.342590 63.935787,289.310944 
	C44.997150,274.682953 32.648026,255.449417 28.253265,231.961975 
	C23.212292,205.020920 26.619087,179.254684 42.941395,156.237457 
	C51.885521,143.624710 63.623283,134.338821 77.096275,126.907249 
	C91.489876,118.967888 106.831779,113.900703 122.921852,111.226112 
	C131.185501,109.852486 139.643265,109.278488 148.029861,109.093292 
	C163.009216,108.762543 178.001251,108.974808 192.987671,109.033981 
	C194.751038,109.040939 196.512543,109.512657 198.559067,110.360535 
	C198.711960,115.558540 198.181442,120.194962 198.525284,124.765610 
	C199.506149,137.804413 200.842758,150.816437 202.039413,163.839005 
z"/>
<path fill="#FA0105" opacity="1.000000" stroke="none" 
	d="
M202.501434,163.905334 
	C200.842758,150.816437 199.506149,137.804413 198.525284,124.765610 
	C198.181442,120.194962 198.711960,115.558540 198.941406,110.556915 
	C200.759521,109.774513 202.479050,109.051262 204.199463,109.049118 
	C253.005722,108.988335 301.812134,108.976082 350.618225,109.082588 
	C352.709229,109.087143 356.216431,109.874100 356.566132,111.043541 
	C357.140442,112.963959 356.277496,115.961578 354.958679,117.698860 
	C343.877441,132.296310 332.636444,146.775894 321.189789,161.087982 
	C319.898590,162.702423 317.038879,163.870331 314.900757,163.879349 
	C277.588867,164.036926 240.276077,163.981064 202.501434,163.905334 
z"/>
<path fill="#DC0104" opacity="1.000000" stroke="none" 
	d="
M229.019684,243.983841 
	C227.825562,241.496399 226.631439,239.008957 225.132935,235.899033 
	C220.506454,223.212433 216.288986,211.109314 211.812042,199.102936 
	C209.955597,194.124298 208.836380,189.279129 211.014603,184.166840 
	C211.762955,184.123444 212.511292,184.080048 213.630127,184.101654 
	C210.805283,189.435364 212.041397,194.460617 214.232864,199.806976 
	C218.830658,211.023819 222.531387,222.623047 227.439865,233.693085 
	C231.126923,242.008469 236.147598,249.730042 240.517334,257.747162 
	C241.453201,259.464111 242.142517,261.315491 242.972961,263.469116 
	C242.841904,263.884583 242.683273,263.935913 242.281433,264.045471 
	C241.198639,263.189178 240.359055,262.274628 239.154297,260.851562 
	C237.194092,257.892029 235.599075,255.441010 234.004044,252.989990 
	C233.773819,252.482132 233.543594,251.974274 233.068604,250.895264 
	C231.555786,248.210693 230.287735,246.097260 229.019684,243.983841 
z"/>
<path fill="#CC0103" opacity="1.000000" stroke="none" 
	d="
M210.680481,184.106720 
	C208.836380,189.279129 209.955597,194.124298 211.812042,199.102936 
	C216.288986,211.109314 220.506454,223.212433 224.919662,235.636932 
	C223.800369,234.485016 222.104095,233.154953 221.457504,231.431183 
	C216.855713,219.163147 212.240494,206.888870 208.186157,194.435364 
	C207.266373,191.610107 208.529221,188.074295 208.893250,184.515991 
	C209.448166,184.126511 209.897278,184.086548 210.680481,184.106720 
z"/>
<path fill="#CC0103" opacity="1.000000" stroke="none" 
	d="
M228.928757,244.268036 
	C230.287735,246.097260 231.555786,248.210693 232.917053,250.660553 
	C231.619461,248.848755 230.228653,246.700485 228.928757,244.268036 
z"/>
<path fill="#CC0103" opacity="1.000000" stroke="none" 
	d="
M234.028717,253.366608 
	C235.599075,255.441010 237.194092,257.892029 238.900604,260.669678 
	C237.359207,258.578644 235.706314,256.160950 234.028717,253.366608 
z"/>
</svg>